PathFileType	4	(X/Y/Z)	c:/Users/goper/Files/vsCode/490R/osim_files/A01/A01_Slow_06.trc
DataRate	CameraRate	NumFrames	NumMarkers	Units                	OrigDataRate	OrigDataStartFrame	OrigNumFrames
120.00	120.00	9	36	mm	120.0	721	1152
                Frame#	Time	Mobility_markerset:LPSIS			Mobility_markerset:LASIS			Mobility_markerset:LTH1			Mobility_markerset:LTH2			Mobility_markerset:LTH3			Mobility_markerset:LTH4			Mobility_markerset:LLFE			Mobility_markerset:LMFE			Mobility_markerset:LSH1			Mobility_markerset:LSH2			Mobility_markerset:LSH3			Mobility_markerset:LSH4			Mobility_markerset:LLMAL			Mobility_markerset:LMMAL			Mobility_markerset:LCAL			Mobility_markerset:LMTP5			Mobility_markerset:LTOE			Mobility_markerset:LMTP1			Mobility_markerset:RPSIS			Mobility_markerset:RASIS			Mobility_markerset:RTH1			Mobility_markerset:RTH2			Mobility_markerset:RTH3			Mobility_markerset:RTH4			Mobility_markerset:RLFE			Mobility_markerset:RMFE			Mobility_markerset:RSH1			Mobility_markerset:RSH2			Mobility_markerset:RSH3			Mobility_markerset:RSH4			Mobility_markerset:RLMAL			Mobility_markerset:RMMAL			Mobility_markerset:RCAL			Mobility_markerset:RMTP1			Mobility_markerset:RTOE			Mobility_markerset:RMTP5		
		X1	Y1	Z1	X2	Y2	Z2	X3	Y3	Z3	X4	Y4	Z4	X5	Y5	Z5	X6	Y6	Z6	X7	Y7	Z7	X8	Y8	Z8	X9	Y9	Z9	X10	Y10	Z10	X11	Y11	Z11	X12	Y12	Z12	X13	Y13	Z13	X14	Y14	Z14	X15	Y15	Z15	X16	Y16	Z16	X17	Y17	Z17	X18	Y18	Z18	X19	Y19	Z19	X20	Y20	Z20	X21	Y21	Z21	X22	Y22	Z22	X23	Y23	Z23	X24	Y24	Z24	X25	Y25	Z25	X26	Y26	Z26	X27	Y27	Z27	X28	Y28	Z28	X29	Y29	Z29	X30	Y30	Z30	X31	Y31	Z31	X32	Y32	Z32	X33	Y33	Z33	X34	Y34	Z34	X35	Y35	Z35	X36	Y36	Z36

721	6.00000	-1278.35205	1039.71558	285.78406	-1505.55823	1013.94690	399.42853	-1453.59143	685.10406	463.61581	-1471.50098	640.87305	462.57501	-1511.02441	702.27002	473.62094	-1520.89136	656.95300	466.90640	-1503.75073	526.16217	441.03976	-1553.54797	509.42572	314.30289	-1361.81738	445.57611	396.86514	-1325.92065	414.40234	392.13486	-1397.23828	395.10284	407.07809	-1357.10767	373.31165	399.99118	-1155.05896	234.67857	337.46527	-1170.56116	236.70401	253.49472	-1094.17053	273.02197	275.30429	-1200.33154	98.95469	377.51010	-1251.55066	91.79643	321.62558	-1240.87622	92.52916	284.27829	-1290.18091	1044.20044	183.45714	-1532.33850	1000.25354	139.34850	-1444.76355	672.75702	65.41672	-1460.90417	632.70398	74.31014	-1505.61780	689.10852	67.25529	-1511.81897	647.09082	74.26808	-1527.07593	503.56161	128.93961	-1521.94861	521.79620	247.08565	-1428.68066	306.54498	122.99043	-1429.19836	261.54422	125.51158	-1490.10754	301.02805	125.00750	-1483.00012	256.83337	127.31060	-1437.70044	87.20992	167.11446	-1461.68591	106.62939	251.02444	-1383.67065	62.84161	217.38284	-1591.00427	41.66461	252.43362	-1624.59326	55.75343	205.51180	-1567.84753	34.01124	138.17607
722	6.00833	-1287.24072	1041.26233	285.28070	-1514.19421	1015.50024	399.63837	-1469.27795	688.19800	463.92917	-1487.95264	643.93781	463.09613	-1526.66919	706.65613	473.70468	-1537.21033	661.55859	466.88608	-1522.02368	529.33832	441.41577	-1571.38940	515.43915	313.47455	-1382.64282	445.63589	398.11322	-1347.68567	413.65134	393.62424	-1419.65393	395.90671	407.30652	-1379.92969	373.25967	400.52328	-1181.54736	229.85631	339.87784	-1194.66235	233.48947	254.58368	-1118.01526	267.31815	278.69089	-1230.22607	94.96159	377.13623	-1280.71838	89.83103	320.42648	-1269.47205	90.69580	283.25555	-1298.98230	1045.09705	183.26506	-1539.66565	1000.60736	139.26266	-1449.68250	673.30377	65.65578	-1465.45691	633.05988	74.42751	-1511.04370	688.81873	67.12106	-1516.39124	646.85693	74.05421	-1529.82092	503.27042	128.60291	-1526.07617	521.43066	246.72916	-1430.95776	306.71368	122.83266	-1431.16406	261.75919	125.33897	-1492.40259	300.87112	125.28843	-1484.99219	256.76730	127.57328	-1438.06604	87.51952	167.40970	-1461.86255	106.39993	251.48474	-1383.81531	63.04689	217.60416	-1591.06421	41.50403	252.50558	-1624.73071	55.55163	205.61189	-1567.92505	34.12173	138.23886
723	6.01667	-1296.11951	1042.63696	284.83426	-1522.77649	1017.00024	399.68179	-1485.13269	691.61829	464.87247	-1505.11914	647.84222	463.65112	-1542.25317	711.02386	473.54141	-1553.82190	666.16821	466.11325	-1541.01355	532.89569	441.27713	-1588.92480	521.36084	312.68991	-1403.58728	445.56076	399.16248	-1369.47656	412.53256	394.89371	-1442.25830	396.69598	407.49002	-1402.94189	373.10233	401.11108	-1207.35242	224.99509	342.10956	-1219.88818	229.02771	256.73572	-1142.39722	260.68137	281.89813	-1260.94922	90.78985	377.41129	-1310.71240	87.52964	319.98145	-1298.91235	88.40518	282.98273	-1307.57690	1046.24634	183.04227	-1548.18884	1001.23132	138.83922	-1454.36707	673.66571	66.08665	-1469.83850	633.32880	74.79934	-1515.55652	688.73895	67.09289	-1520.69568	646.46155	73.90414	-1532.33752	502.83316	128.21446	-1529.70813	520.98413	246.44801	-1432.93933	306.95688	122.79955	-1433.07861	261.86060	125.41300	-1494.47217	300.77277	125.77641	-1486.68213	256.60815	127.96799	-1438.40149	87.81158	167.77473	-1462.40527	106.59749	252.00381	-1384.02502	63.20491	217.83882	-1590.93384	41.01632	252.24324	-1624.95361	55.36209	205.76936	-1567.98303	34.25855	138.28014
724	6.02500	-1304.80627	1043.92578	284.41858	-1531.40552	1018.52460	399.52838	-1501.06104	694.69714	465.60742	-1521.86206	651.40546	464.26453	-1557.58691	715.42218	473.40237	-1569.78650	670.47876	466.13409	-1559.59290	536.64478	441.01862	-1606.25964	527.08698	311.76511	-1424.33289	445.36768	399.96185	-1391.15491	411.45905	395.98959	-1464.54370	397.62061	407.78824	-1425.85791	372.93417	401.70163	-1234.10034	219.39806	344.20187	-1245.78772	223.78297	258.94949	-1167.47192	253.18097	284.83652	-1292.21985	86.65888	378.32303	-1341.53455	85.01285	320.26849	-1329.25488	85.66142	283.47089	-1316.04541	1047.32397	182.84398	-1556.48499	1002.04462	138.39955	-1458.98535	673.98767	66.72188	-1474.11584	633.39923	75.36838	-1520.17664	688.30017	67.13230	-1525.13147	645.97882	73.91698	-1534.66028	502.28488	127.88600	-1532.98669	520.64166	246.34537	-1434.63428	307.16617	122.87070	-1434.39502	262.13885	125.52811	-1496.26965	300.60703	126.09238	-1488.04761	256.50714	128.27657	-1438.73694	88.05653	168.19238	-1462.56445	106.24673	252.58743	-1384.14221	63.38046	218.04471	-1590.98755	40.89542	252.27977	-1625.05066	55.23214	205.84193	-1568.03088	34.40520	138.36702
725	6.03333	-1313.34412	1045.03320	284.11389	-1540.04211	1020.01721	399.27734	-1516.68982	697.80414	466.47726	-1538.40051	655.00189	464.73807	-1572.85376	719.71143	473.21558	-1585.70715	674.71588	466.12521	-1577.67188	540.55212	440.46744	-1623.54541	532.71002	310.98642	-1445.01343	445.14890	400.66681	-1412.95496	410.14365	396.90204	-1486.09277	399.23288	408.46359	-1448.92578	372.83429	402.32309	-1261.53137	213.20230	346.30435	-1272.36804	217.80820	261.22742	-1193.34204	244.86273	287.70670	-1324.20459	82.36566	379.81232	-1372.94128	82.29292	321.30344	-1360.01221	82.49101	284.42331	-1324.54309	1048.29053	182.72130	-1564.80835	1002.82928	137.69560	-1463.57385	674.09540	67.41759	-1478.10254	633.49042	75.98637	-1524.87195	687.79132	67.35168	-1529.22522	645.40869	74.18916	-1537.04187	501.70526	127.79660	-1535.87854	520.38330	246.50998	-1436.31091	307.27927	123.16336	-1435.76355	262.25555	125.88564	-1497.82263	300.39542	126.39436	-1489.43738	256.35413	128.62555	-1439.00867	88.31897	168.67003	-1462.78235	106.24109	253.00986	-1384.24036	63.56068	218.28899	-1591.04712	40.79937	252.29056	-1625.17493	55.14669	205.88812	-1568.11426	34.59209	138.44513
726	6.04167	-1321.93518	1045.90784	284.01703	-1548.72266	1021.46460	398.83365	-1532.19324	700.94312	467.19534	-1554.74475	658.58710	465.05203	-1587.79199	723.92737	473.01340	-1601.42590	678.79614	465.95605	-1595.43958	544.61346	439.80118	-1640.30310	537.75763	309.99066	-1465.59399	444.73022	401.08698	-1434.68701	408.68365	397.73438	-1508.33740	400.22858	408.77698	-1471.94519	372.50662	402.88373	-1289.60107	206.65921	348.52670	-1299.62695	211.31691	263.56180	-1220.02271	235.93887	290.31595	-1356.69458	78.09966	381.98715	-1405.17419	79.50405	323.13687	-1392.16431	79.15903	286.58160	-1333.05249	1048.97156	182.71487	-1573.08301	1003.70300	137.17245	-1467.94763	674.33630	68.35530	-1481.95044	633.60333	76.83315	-1529.37000	687.20636	67.75443	-1533.27576	644.74756	74.61623	-1539.40039	501.10135	127.91035	-1538.67712	520.03992	246.73204	-1437.52319	307.42456	123.56023	-1436.73767	262.43686	126.23751	-1498.96985	300.15570	126.68639	-1490.35596	256.19501	128.92252	-1439.25964	88.55513	169.17383	-1462.70142	106.05239	253.03607	-1384.35181	63.71063	218.54056	-1591.16040	40.68958	252.35890	-1625.27600	55.10876	205.94958	-1568.18140	34.79110	138.52478
727	6.05000	-1330.32361	1046.49292	283.95282	-1557.39746	1022.86847	398.19751	-1547.31445	704.05841	467.73972	-1570.76245	662.17096	465.27048	-1602.12329	727.99475	472.56207	-1616.97778	683.07874	465.97708	-1612.46375	548.62122	438.99219	-1656.95276	542.57056	309.08865	-1486.03528	444.11520	401.36957	-1456.49182	407.00406	398.37991	-1530.30554	401.19705	409.21719	-1494.80688	372.21655	403.56821	-1318.23389	199.85637	350.77609	-1327.63477	204.25778	265.98343	-1247.25159	226.39595	292.80334	-1389.74316	73.70334	384.62396	-1437.81091	76.58456	325.63837	-1424.90186	75.67497	289.30844	-1341.45288	1049.47375	182.81084	-1581.47339	1004.54706	136.43904	-1472.45215	674.38977	69.11747	-1485.78735	633.69537	77.74390	-1533.84424	686.58099	68.19209	-1537.34265	644.17548	75.35645	-1541.95813	500.51761	128.23546	-1541.18762	519.66815	247.19325	-1438.71069	307.50085	124.03948	-1437.71826	262.56836	126.80000	-1500.15576	299.86069	127.06981	-1491.31714	256.01047	129.31651	-1439.29919	88.95126	169.49286	-1463.00061	105.84196	253.86719	-1384.35120	63.91459	218.72543	-1591.23486	40.47683	252.59601	-1625.36206	55.03371	206.09853	-1568.31116	35.00579	138.63527
728	6.05833	-1338.83264	1046.82812	284.03210	-1566.27954	1024.21924	397.48932	-1562.02271	707.13666	467.94040	-1586.23315	665.68744	465.22333	-1616.28320	732.19312	472.01782	-1631.63721	687.16864	465.50052	-1628.93872	552.45398	438.04938	-1673.34094	547.06781	308.16782	-1506.27649	443.26010	401.58643	-1477.97937	405.12216	398.83884	-1552.13220	401.98010	409.67325	-1517.73596	371.74609	404.26419	-1347.31262	192.72342	353.09064	-1356.20520	196.85588	268.50653	-1275.09753	216.39186	295.26602	-1423.23645	69.56991	387.87390	-1470.94873	73.60837	328.72403	-1458.02380	72.04429	292.33057	-1349.97339	1049.67090	183.01160	-1589.60962	1005.33868	135.80211	-1476.68213	675.03577	70.19347	-1489.75073	633.81384	78.72413	-1538.38745	686.05042	68.96741	-1541.38257	643.61279	76.10258	-1544.70984	499.98056	128.76849	-1543.27100	519.16754	247.87160	-1439.88306	307.58682	124.53289	-1438.51709	262.66385	127.30144	-1501.23572	299.65784	127.41621	-1492.11536	255.75241	129.74599	-1439.48523	89.06249	170.10925	-1463.12341	105.48075	254.55783	-1384.50635	64.01681	219.01129	-1591.22046	40.20526	252.78979	-1625.41980	54.93071	206.26285	-1568.33154	35.20384	138.77197
729	6.06667	-1347.31238	1047.00269	284.24557	-1575.06921	1025.45984	396.72403	-1576.15723	709.85638	467.56772	-1601.27100	669.23785	464.89011	-1630.44141	736.45770	470.40314	-1647.93506	692.93219	463.66876	-1646.47864	556.15491	438.43173	-1689.52466	551.30743	307.10910	-1526.48413	442.18488	401.71265	-1499.60156	403.06195	399.36880	-1573.72778	402.66705	410.10953	-1540.57190	371.10956	405.06805	-1376.78857	185.43999	355.61316	-1385.32812	189.30226	271.08176	-1303.71680	206.03551	297.76117	-1457.11450	65.69260	391.55444	-1504.59131	70.76270	332.25082	-1491.69275	68.54819	295.79639	-1358.53650	1049.62097	183.34875	-1597.85864	1006.13446	135.06326	-1481.23157	675.36011	71.10193	-1493.72009	634.01324	79.60295	-1543.14294	685.67657	69.82101	-1545.49500	643.12628	76.85323	-1547.70898	499.38431	129.40630	-1545.34424	518.30365	248.65984	-1441.03430	307.70917	125.03045	-1439.67432	262.68393	127.84308	-1502.36865	299.38171	127.83913	-1493.12073	255.54396	130.21414	-1439.63989	89.30020	170.69287	-1463.32935	105.24657	255.21344	-1384.70972	64.06363	219.33208	-1591.25037	39.95872	252.96548	-1625.52197	54.81145	206.47554	-1568.30225	35.36401	138.88107
